<?xml version="1.0" encoding="UTF-8" standalone="no"?>
<svg
   xmlns:dc="http://purl.org/dc/elements/1.1/"
   xmlns:cc="http://creativecommons.org/ns#"
   xmlns:rdf="http://www.w3.org/1999/02/22-rdf-syntax-ns#"
   xmlns:svg="http://www.w3.org/2000/svg"
   xmlns="http://www.w3.org/2000/svg"
   xmlns:sodipodi="http://sodipodi.sourceforge.net/DTD/sodipodi-0.dtd"
   xmlns:inkscape="http://www.inkscape.org/namespaces/inkscape"
   viewBox="-720 -362.5 1440 725"
   width="1440"
   height="725"
   style="background-color: rgb(255, 255, 255);"
   version="1.1"
   id="svg15595"
   sodipodi:docname="nn.svg"
   inkscape:version="0.92.2 5c3e80d, 2017-08-06">
  <metadata
     id="metadata15601">
    <rdf:RDF>
      <cc:Work
         rdf:about="">
        <dc:format>image/svg+xml</dc:format>
        <dc:type
           rdf:resource="http://purl.org/dc/dcmitype/StillImage" />
      </cc:Work>
    </rdf:RDF>
  </metadata>
  <defs
     id="defs15599" />
  <sodipodi:namedview
     pagecolor="#ffffff"
     bordercolor="#666666"
     borderopacity="1"
     objecttolerance="10"
     gridtolerance="10"
     guidetolerance="10"
     inkscape:pageopacity="0"
     inkscape:pageshadow="2"
     inkscape:window-width="1600"
     inkscape:window-height="775"
     id="namedview15597"
     showgrid="false"
     inkscape:zoom="1.1313708"
     inkscape:cx="640.56119"
     inkscape:cy="394.58647"
     inkscape:window-x="81"
     inkscape:window-y="32"
     inkscape:window-maximized="0"
     inkscape:current-layer="svg15595" />
  <path
     d="M-237.08965588402896,24.725596163068218L-262.9131632103714,21.108864016864327M-262.9131632103714,-105.72378071158421L-262.9131632103714,21.108864016864327M-262.9131632103714,21.108864016864327L-311.70366774127217,67.556764229322M-237.08965588402896,-102.10704856538032L-237.08965588402896,24.725596163068218M-237.08965588402896,24.725596163068218L-285.8801604149297,71.17349637552587"
     style="fill:none;stroke:rgb(0,0,0);stroke-width:1;stroke-linecap:round"
     id="path15305" />
  <path
     d="M-237.08965588402896,24.725596163068225L-262.9131632103714,21.108864016864327L-262.9131632103714,-105.72378071158424zM-237.08965588402896,-102.10704856538032L-237.08965588402896,24.725596163068225L-262.9131632103714,-105.72378071158424zM-311.7036677412721,67.556764229322L-262.9131632103714,21.108864016864327L-237.08965588402896,24.725596163068225z"
     style="fill:rgb(238,238,238); fill-opacity: 0.4"
     id="path15307" />
  <path
     d="M-249.18193223438902,-13.936413538313962L-275.0054395607315,-17.553145684517855M-275.0054395607315,-43.33382536232251L-275.0054395607315,-17.553145684517855M-275.0054395607315,-17.553145684517855L-284.92285767751616,-8.111897812979809M-237.08965588402896,-102.10704856538032L-262.9131632103714,-105.72378071158421M-262.9131632103714,-105.72378071158421L-311.70366774127217,-59.27588049912655"
     style="fill:none;stroke:rgb(0,0,0);stroke-width:1;stroke-linecap:round"
     id="path15309" />
  <path
     d="M-249.18193223438902,-13.936413538313962L-275.0054395607315,-17.553145684517855L-275.0054395607315,-43.33382536232251z"
     style="fill:rgb(153,221,255); fill-opacity: 0.4"
     id="path15311" />
  <path
     d="M-249.1819351251176,-39.71709394342964L-249.1819351251176,-13.936414265624993M-249.1819351251176,-13.936414265624993L-259.09935345685653,-4.495166189453414M-249.1819351251176,-13.936414265624993L-210.99281826783138,-12.029436946750835M-249.18193223438902,-39.71709321611861L-249.18193223438902,-13.936413538313962M-249.18193223438902,-13.936413538313962L-259.0993503511737,-4.495165666775917M-237.08965588402896,-102.10704856538032L-285.8801604149297,-55.65914835292266M-249.18193223438902,-39.71709321611861L-275.0054395607315,-43.33382536232251M-275.0054395607315,-43.33382536232251L-284.92285767751616,-33.89257749078447"
     style="fill:none;stroke:rgb(0,0,0);stroke-width:1;stroke-linecap:round"
     id="path15313" />
  <path
     d="M-284.9228576775161,-8.111897812979812L-275.0054395607315,-17.553145684517855L-249.18193223438902,-13.936413538313962zM-249.18193223438902,-39.717093216118606L-249.18193223438902,-13.936413538313962L-275.0054395607315,-43.33382536232251zM-275.0054395607315,-43.33382536232251L-275.0054395607315,-17.553145684517855L-284.9228576775161,-33.89257749078447z"
     style="fill:rgb(153,221,255); fill-opacity: 0.4"
     id="path15315" />
  <path
     d="M-285.88016041492966,71.17349637552587L-237.08965588402896,24.725596163068225L-237.08965588402896,-102.10704856538032z"
     style="fill:rgb(238,238,238); fill-opacity: 0.4"
     id="path15317" />
  <path
     d="M-249.1819351251176,-39.71709394342964L-259.09935345685653,-30.275845867258067M-249.1819351251176,-39.71709394342964L-210.99281826783138,-12.029436946750835M-249.18193223438902,-39.71709321611861L-259.0993503511737,-30.27584534458057"
     style="fill:none;stroke:rgb(0,0,0);stroke-width:1;stroke-linecap:round"
     id="path15319" />
  <path
     d="M-275.0054395607315,-17.553145684517855L-284.9228576775161,-8.111897812979812L-284.9228576775161,-33.89257749078447z"
     style="fill:rgb(153,221,255); fill-opacity: 0.4"
     id="path15321" />
  <path
     d="M-249.18193246749476,-39.717093248766425L-249.18193246749476,-13.936413570961776L-259.0993505842795,-4.495165699423733z"
     style="fill:rgb(255,187,187); fill-opacity: 0.4"
     id="path15323" />
  <path
     d="M-259.09935035117365,-4.495165666775919L-249.18193223438902,-13.936413538313962L-249.18193223438902,-39.717093216118606z"
     style="fill:rgb(153,221,255); fill-opacity: 0.4"
     id="path15325" />
  <path
     d="M-137.73991527103638,19.2949386350078L-202.91119072856938,10.167323087760874M-202.91119072856938,-49.947349014415884L-202.91119072856938,10.167323087760874M-202.91119072856938,10.167323087760874L-226.03635056304685,32.18216238315427"
     style="fill:none;stroke:rgb(0,0,0);stroke-width:1;stroke-linecap:round"
     id="path15327" />
  <path
     d="M-259.09935035117365,-4.495165666775919L-284.9228576775161,-8.111897812979812L-249.18193223438902,-13.936413538313962z"
     style="fill:rgb(153,221,255); fill-opacity: 0.4"
     id="path15329" />
  <path
     d="M-262.9131632103714,-105.72378071158424L-262.9131632103714,21.108864016864327L-311.70366774127217,-59.27588049912656z"
     style="fill:rgb(238,238,238); fill-opacity: 0.4"
     id="path15331" />
  <path
     d="M-284.92285767751616,-33.89257749078447L-284.92285767751616,-8.111897812979809M-284.92285767751616,-8.111897812979809L-259.0993503511737,-4.495165666775917"
     style="fill:none;stroke:rgb(0,0,0);stroke-width:1;stroke-linecap:round"
     id="path15333" />
  <path
     d="M-259.09935035117365,-30.27584534458057L-249.18193223438902,-39.717093216118606L-275.0054395607315,-43.33382536232251z"
     style="fill:rgb(153,221,255); fill-opacity: 0.4"
     id="path15335" />
  <path
     d="M-249.18193246749476,-13.936413570961776L-249.18193246749476,-39.717093248766425L-210.9928199592394,-12.029437153729555z"
     style="fill:rgb(255,187,187); fill-opacity: 0.4"
     id="path15337" />
  <path
     d="M-284.9228576775161,-33.89257749078447L-259.09935035117365,-30.27584534458057L-275.0054395607315,-43.33382536232251z"
     style="fill:rgb(153,221,255); fill-opacity: 0.4"
     id="path15339" />
  <path
     d="M-259.0993505842795,-4.495165699423733L-249.18193246749476,-13.936413570961776L-210.9928199592394,-12.029437153729555zM-249.18193246749476,-39.717093248766425L-259.0993505842795,-4.495165699423733L-259.0993505842795,-30.275845377228386z"
     style="fill:rgb(255,187,187); fill-opacity: 0.4"
     id="path15341" />
  <path
     d="M-259.09935035117365,-30.27584534458057L-259.09935035117365,-4.495165666775919L-249.18193223438902,-39.717093216118606z"
     style="fill:rgb(153,221,255); fill-opacity: 0.4"
     id="path15343" />
  <path
     d="M-259.09935345685653,-4.495166189453414L-259.09935345685653,-30.275845867258067M-259.09935345685653,-4.495166189453414L-210.99281826783138,-12.029436946750835M-259.0993503511737,-30.27584534458057L-259.0993503511737,-4.495165666775917"
     style="fill:none;stroke:rgb(0,0,0);stroke-width:1;stroke-linecap:round"
     id="path15345" />
  <path
     d="M-284.9228576775161,-8.111897812979812L-259.09935035117365,-4.495165666775919L-259.09935035117365,-30.27584534458057zM-284.9228576775161,-33.89257749078447L-284.9228576775161,-8.111897812979812L-259.09935035117365,-30.27584534458057z"
     style="fill:rgb(153,221,255); fill-opacity: 0.4"
     id="path15347" />
  <path
     d="M-284.92285767751616,-33.89257749078447L-259.0993503511737,-30.27584534458057"
     style="fill:none;stroke:rgb(0,0,0);stroke-width:1;stroke-linecap:round"
     id="path15349" />
  <path
     d="M-285.88016041492966,71.17349637552587L-311.7036677412721,67.556764229322L-237.08965588402896,24.725596163068225zM-137.7399152710364,19.2949386350078L-202.91119072856944,10.167323087760876L-202.91119072856944,-49.94734901441587z"
     style="fill:rgb(238,238,238); fill-opacity: 0.4"
     id="path15351" />
  <path
     d="M-249.18193246749476,-39.717093248766425L-259.0993505842795,-30.275845377228386L-210.9928199592394,-12.029437153729555zM-259.0993505842795,-30.275845377228386L-259.0993505842795,-4.495165699423733L-210.9928199592394,-12.029437153729555z"
     style="fill:rgb(255,187,187); fill-opacity: 0.4"
     id="path15353" />
  <path
     d="M-259.09935345685653,-30.275845867258067L-210.99281826783138,-12.029436946750835M-137.7399152710364,-40.81973346716895L-137.73991527103638,19.2949386350078M-137.73991527103638,19.2949386350078L-160.86507510551388,41.30977793040119M-137.7399152710364,-40.81973346716895L-202.91119072856938,-49.947349014415884M-202.91119072856938,-49.947349014415884L-226.03635056304685,-27.93250971902249"
     style="fill:none;stroke:rgb(0,0,0);stroke-width:1;stroke-linecap:round"
     id="path15355" />
  <path
     d="M-285.8801604149297,-55.65914835292266L-237.08965588402896,-102.10704856538032L-262.9131632103714,-105.72378071158424zM-262.9131632103714,21.108864016864327L-311.7036677412721,67.556764229322L-311.70366774127217,-59.27588049912656zM-226.0363505630469,32.18216238315427L-202.91119072856944,10.167323087760876L-137.7399152710364,19.2949386350078zM-137.7399152710364,-40.81973346716895L-137.7399152710364,19.2949386350078L-202.91119072856944,-49.94734901441587zM-202.91119072856944,-49.94734901441587L-202.91119072856944,10.167323087760876L-226.0363505630469,-27.93250971902249z"
     style="fill:rgb(238,238,238); fill-opacity: 0.4"
     id="path15357" />
  <path
     d="M-148.13964280092637,-14.994791773354262L-213.3109182584594,-24.122407320601187M-213.3109182584594,-31.15350177818427L-213.3109182584594,-24.122407320601187M-213.3109182584594,-24.122407320601187L-216.0156686539461,-21.547521537454447"
     style="fill:none;stroke:rgb(0,0,0);stroke-width:1;stroke-linecap:round"
     id="path15359" />
  <path
     d="M-202.91119072856944,10.167323087760876L-226.0363505630469,32.18216238315427L-226.0363505630469,-27.93250971902249z"
     style="fill:rgb(238,238,238); fill-opacity: 0.4"
     id="path15361" />
  <path
     d="M-148.13964280092637,-22.025886230937346L-213.3109182584594,-31.15350177818427M-213.3109182584594,-31.15350177818427L-216.0156686539461,-28.578615995037534"
     style="fill:none;stroke:rgb(0,0,0);stroke-width:1;stroke-linecap:round"
     id="path15363" />
  <path
     d="M-213.3109182584594,-31.153501778184275L-213.3109182584594,-24.122407320601184L-216.0156686539461,-28.578615995037534z"
     style="fill:rgb(153,221,255); fill-opacity: 0.4"
     id="path15365" />
  <path
     d="M-137.7399152710364,-40.81973346716895L-160.86507510551388,-18.80489417177556"
     style="fill:none;stroke:rgb(0,0,0);stroke-width:1;stroke-linecap:round"
     id="path15367" />
  <path
     d="M-213.3109182584594,-24.122407320601184L-216.0156686539461,-21.54752153745444L-216.0156686539461,-28.578615995037534z"
     style="fill:rgb(153,221,255); fill-opacity: 0.4"
     id="path15369" />
  <path
     d="M-311.70366774127217,-59.27588049912655L-311.70366774127217,67.556764229322M-311.70366774127217,67.556764229322L-285.8801604149297,71.17349637552587M-216.0156686539461,-28.578615995037534L-216.0156686539461,-21.547521537454447M-216.0156686539461,-21.547521537454447L-150.8443931964131,-12.419905990207523M-97.99142881267092,60.87765577103832L-100.34198570398678,60.54844662981408M-100.34198570398678,-53.16849510310536L-100.34198570398678,60.54844662981408M-100.34198570398678,60.54844662981408L-106.59128609032557,66.4976960490018"
     style="fill:none;stroke:rgb(0,0,0);stroke-width:1;stroke-linecap:round"
     id="path15371" />
  <path
     d="M-160.86507510551388,41.30977793040119L-137.7399152710364,19.2949386350078L-137.7399152710364,-40.81973346716895z"
     style="fill:rgb(238,238,238); fill-opacity: 0.4"
     id="path15373" />
  <path
     d="M-97.99142881267092,-52.83928596188112L-97.99142881267092,60.87765577103832M-97.99142881267092,60.87765577103832L-104.24072919900972,66.82690519022604"
     style="fill:none;stroke:rgb(0,0,0);stroke-width:1;stroke-linecap:round"
     id="path15375" />
  <path
     d="M-285.8801604149297,-55.65914835292266L-285.88016041492966,71.17349637552587L-237.08965588402896,-102.10704856538032z"
     style="fill:rgb(238,238,238); fill-opacity: 0.4"
     id="path15377" />
  <path
     d="M-148.13964280092637,-14.994791773354262L-213.3109182584594,-24.122407320601184L-213.3109182584594,-31.153501778184275z"
     style="fill:rgb(153,221,255); fill-opacity: 0.4"
     id="path15379" />
  <path
     d="M-216.0156686539461,-28.578615995037534L-150.8443931964131,-19.45100044779061"
     style="fill:none;stroke:rgb(0,0,0);stroke-width:1;stroke-linecap:round"
     id="path15381" />
  <path
     d="M-216.0156686539461,-21.54752153745444L-213.3109182584594,-24.122407320601184L-148.13964280092637,-14.994791773354262z"
     style="fill:rgb(153,221,255); fill-opacity: 0.4"
     id="path15383" />
  <path
     d="M107.12095283827567,72.93429058624726L81.29744551193319,69.31755844004336M81.29744551193318,-57.515086288405186L81.29744551193319,69.31755844004336M81.29744551193319,69.31755844004336L32.50694098103242,115.76545865250104"
     style="fill:none;stroke:rgb(0,0,0);stroke-width:1;stroke-linecap:round"
     id="path15385" />
  <path
     d="M-160.86507510551388,41.30977793040119L-226.0363505630469,32.18216238315427L-137.7399152710364,19.2949386350078zM-106.59128609032557,66.4976960490018L-100.34198570398678,60.54844662981408L-97.99142881267095,60.87765577103832z"
     style="fill:rgb(238,238,238); fill-opacity: 0.4"
     id="path15387" />
  <path
     d="M-226.03635056304685,-27.93250971902249L-226.03635056304685,32.18216238315427M-226.03635056304685,32.18216238315427L-160.86507510551388,41.30977793040119M21.453635660050402,41.590919806143184L-43.7176397974826,32.463304258896265M-43.717639797482605,-27.651367843280497L-43.7176397974826,32.463304258896265M-43.7176397974826,32.463304258896265L-66.84279963196008,54.47814355428965M-285.8801604149297,-55.65914835292266L-285.8801604149297,71.17349637552587"
     style="fill:none;stroke:rgb(0,0,0);stroke-width:1;stroke-linecap:round"
     id="path15389" />
  <path
     d="M-216.0156686539461,-28.578615995037534L-150.84439319641308,-19.45100044779061L-213.3109182584594,-31.153501778184275z"
     style="fill:rgb(153,221,255); fill-opacity: 0.4"
     id="path15391" />
  <path
     d="M-160.86507510551388,-18.80489417177556L-137.7399152710364,-40.81973346716895L-202.91119072856944,-49.94734901441587z"
     style="fill:rgb(238,238,238); fill-opacity: 0.4"
     id="path15393" />
  <path
     d="M-216.0156686539461,-28.578615995037534L-216.0156686539461,-21.54752153745444L-150.84439319641308,-19.45100044779061zM-148.13964280092637,-22.02588623093735L-148.13964280092637,-14.994791773354262L-213.3109182584594,-31.153501778184275z"
     style="fill:rgb(153,221,255); fill-opacity: 0.4"
     id="path15395" />
  <path
     d="M-104.24072919900972,66.82690519022604L-106.59128609032557,66.4976960490018L-97.99142881267095,60.87765577103832zM-311.70366774127217,-59.27588049912656L-285.8801604149297,-55.65914835292266L-262.9131632103714,-105.72378071158424z"
     style="fill:rgb(238,238,238); fill-opacity: 0.4"
     id="path15397" />
  <path
     d="M107.12095283827567,-53.89835414220129L107.12095283827567,72.93429058624726M107.12095283827567,72.93429058624726L58.3304483073749,119.38219079870491"
     style="fill:none;stroke:rgb(0,0,0);stroke-width:1;stroke-linecap:round"
     id="path15399" />
  <path
     d="M-150.84439319641308,-12.41990599020752L-216.0156686539461,-21.54752153745444L-148.13964280092637,-14.994791773354262zM-150.84439319641308,-19.45100044779061L-148.13964280092637,-22.02588623093735L-213.3109182584594,-31.153501778184275z"
     style="fill:rgb(153,221,255); fill-opacity: 0.4"
     id="path15401" />
  <path
     d="M-97.99142881267095,60.87765577103832L-100.34198570398678,60.54844662981408L-100.3419857039868,-53.16849510310536z"
     style="fill:rgb(238,238,238); fill-opacity: 0.4"
     id="path15403" />
  <path
     d="M-106.59128609032557,-47.21924568391763L-106.59128609032557,66.4976960490018M-106.59128609032557,66.4976960490018L-104.24072919900972,66.82690519022604"
     style="fill:none;stroke:rgb(0,0,0);stroke-width:1;stroke-linecap:round"
     id="path15405" />
  <path
     d="M-216.0156686539461,-21.54752153745444L-150.84439319641308,-12.41990599020752L-150.84439319641308,-19.45100044779061z"
     style="fill:rgb(153,221,255); fill-opacity: 0.4"
     id="path15407" />
  <path
     d="M-104.24072919900972,-46.89003654269339L-104.24072919900972,66.82690519022604M-148.13964284796586,-22.02588625819272L-148.13964284796586,-14.994791800609635M-148.13964284796586,-14.994791800609635L-150.84439324345257,-12.419906017462896M-148.13964284796586,-14.994791800609635L-102.34257189719146,2.1087070099995806M-148.13964280092637,-22.025886230937346L-148.13964280092637,-14.994791773354262M-148.13964280092637,-14.994791773354262L-150.8443931964131,-12.419905990207523M19.374681268879385,26.649052374728125L-45.79659418865361,17.521436827481196M-45.79659418865361,10.490342369898112L-45.79659418865361,17.521436827481196M-45.79659418865361,17.521436827481196L-48.50134458414035,20.096322610627936M-148.13964284796586,-22.02588625819272L-150.84439324345257,-19.45100047504598M-148.13964284796586,-22.02588625819272L-102.34257189719146,2.1087070099995806M-148.13964280092637,-22.025886230937346L-150.8443931964131,-19.45100044779061"
     style="fill:none;stroke:rgb(0,0,0);stroke-width:1;stroke-linecap:round"
     id="path15409" />
  <path
     d="M-226.0363505630469,-27.93250971902249L-160.86507510551388,-18.80489417177556L-202.91119072856944,-49.94734901441587z"
     style="fill:rgb(238,238,238); fill-opacity: 0.4"
     id="path15411" />
  <path
     d="M-148.13964289046632,-22.02588624347794L-148.13964289046632,-14.994791785894853L-150.84439328595306,-12.419906002748112z"
     style="fill:rgb(255,187,187); fill-opacity: 0.4"
     id="path15413" />
  <path
     d="M-150.84439319641308,-12.41990599020752L-148.13964280092637,-14.994791773354262L-148.13964280092637,-22.02588623093735z"
     style="fill:rgb(153,221,255); fill-opacity: 0.4"
     id="path15415" />
  <path
     d="M-104.24072919900972,66.82690519022604L-97.99142881267095,60.87765577103832L-97.99142881267095,-52.83928596188112zM-311.7036677412721,67.556764229322L-285.88016041492966,71.17349637552587L-285.8801604149297,-55.65914835292266z"
     style="fill:rgb(238,238,238); fill-opacity: 0.4"
     id="path15417" />
  <path
     d="M19.374681268879385,19.617957917145038L-45.79659418865361,10.490342369898112M-45.79659418865361,10.490342369898112L-48.50134458414035,13.06522815304485"
     style="fill:none;stroke:rgb(0,0,0);stroke-width:1;stroke-linecap:round"
     id="path15419" />
  <path
     d="M-148.13964289046632,-22.02588624347794L-150.84439328595306,-12.419906002748112L-150.84439328595306,-19.4510004603312z"
     style="fill:rgb(255,187,187); fill-opacity: 0.4"
     id="path15421" />
  <path
     d="M-150.84439319641308,-19.45100044779061L-150.84439319641308,-12.41990599020752L-148.13964280092637,-22.02588623093735z"
     style="fill:rgb(153,221,255); fill-opacity: 0.4"
     id="path15423" />
  <path
     d="M-148.13964289046632,-14.994791785894853L-148.13964289046632,-22.02588624347794L-102.34257374600116,2.1087070290801857z"
     style="fill:rgb(255,187,187); fill-opacity: 0.4"
     id="path15425" />
  <path
     d="M107.12095283827567,72.93429058624724L81.29744551193319,69.31755844004336L81.29744551193319,-57.515086288405186z"
     style="fill:rgb(238,238,238); fill-opacity: 0.4"
     id="path15427" />
  <path
     d="M-150.84439324345257,-12.419906017462896L-150.84439324345257,-19.45100047504598M-150.84439324345257,-12.419906017462896L-102.34257189719146,2.1087070099995806M-150.8443931964131,-19.45100044779061L-150.8443931964131,-12.419905990207523"
     style="fill:none;stroke:rgb(0,0,0);stroke-width:1;stroke-linecap:round"
     id="path15429" />
  <path
     d="M21.453635660050406,41.59091980614319L-43.71763979748261,32.463304258896265L-43.71763979748261,-27.651367843280497z"
     style="fill:rgb(238,238,238); fill-opacity: 0.4"
     id="path15431" />
  <path
     d="M-45.79659418865363,10.49034236989811L-45.79659418865363,17.521436827481196L-48.50134458414036,13.06522815304485z"
     style="fill:rgb(153,221,255); fill-opacity: 0.4"
     id="path15433" />
  <path
     d="M-150.84439328595306,-12.419906002748112L-148.13964289046632,-14.994791785894853L-102.34257374600116,2.1087070290801857z"
     style="fill:rgb(255,187,187); fill-opacity: 0.4"
     id="path15435" />
  <path
     d="M-45.79659418865363,17.521436827481196L-48.50134458414036,20.096322610627936L-48.50134458414036,13.06522815304485z"
     style="fill:rgb(153,221,255); fill-opacity: 0.4"
     id="path15437" />
  <path
     d="M-100.34198570398678,60.54844662981408L-106.59128609032557,66.4976960490018L-106.59128609032558,-47.21924568391763z"
     style="fill:rgb(238,238,238); fill-opacity: 0.4"
     id="path15439" />
  <path
     d="M-98.95431085266758,3.0006606915959244L-101.30486774398342,2.671451550371683M-101.30486774398342,0.32775339784398755L-101.30486774398342,2.671451550371683M-101.30486774398342,2.671451550371683L-102.20645120914565,3.5297468114205968M-48.50134458414035,13.06522815304485L-48.50134458414035,20.096322610627936M-48.50134458414035,20.096322610627936L16.66993087339266,29.223938157874866M-150.84439324345257,-19.45100047504598L-102.34257189719146,2.1087070099995806"
     style="fill:none;stroke:rgb(0,0,0);stroke-width:1;stroke-linecap:round"
     id="path15441" />
  <path
     d="M-148.13964289046632,-22.02588624347794L-150.84439328595306,-19.4510004603312L-102.34257374600116,2.1087070290801857z"
     style="fill:rgb(255,187,187); fill-opacity: 0.4"
     id="path15443" />
  <path
     d="M-100.12958737654827,0.49235814151600865L-100.12958737654827,2.8360562940437046M-100.12958737654827,2.8360562940437046L-101.03117094918765,3.694351657409386M-100.12958737654827,2.8360562940437046L-48.94885706896563,5.743534182754463"
     style="fill:none;stroke:rgb(0,0,0);stroke-width:1;stroke-linecap:round"
     id="path15445" />
  <path
     d="M-98.95431085266758,3.0006606915959244L-101.30486774398344,2.6714515503716836L-101.30486774398344,0.3277533978439886z"
     style="fill:rgb(153,221,255); fill-opacity: 0.4"
     id="path15447" />
  <path
     d="M-98.95431085266758,0.6569625390682284L-98.95431085266758,3.0006606915959244M-98.95431085266758,3.0006606915959244L-99.85589431782981,3.8589559526448376M-98.95431085266758,0.6569625390682284L-101.30486774398342,0.32775339784398755M-101.30486774398342,0.32775339784398755L-102.20645120914565,1.1860486588929007"
     style="fill:none;stroke:rgb(0,0,0);stroke-width:1;stroke-linecap:round"
     id="path15449" />
  <path
     d="M-102.20645120914567,3.5297468114205968L-101.30486774398344,2.6714515503716836L-98.95431085266758,3.0006606915959244zM-98.95431085266758,0.6569625390682295L-98.95431085266758,3.0006606915959244L-101.30486774398344,0.3277533978439886z"
     style="fill:rgb(153,221,255); fill-opacity: 0.4"
     id="path15451" />
  <path
     d="M-100.12958737654827,0.49235814151600865L-101.03117094918765,1.3506535048816903M-100.12958737654827,0.49235814151600865L-48.94885706896563,5.743534182754463"
     style="fill:none;stroke:rgb(0,0,0);stroke-width:1;stroke-linecap:round"
     id="path15453" />
  <path
     d="M-101.30486774398344,0.3277533978439886L-101.30486774398344,2.6714515503716836L-102.20645120914567,1.1860486588929005z"
     style="fill:rgb(153,221,255); fill-opacity: 0.4"
     id="path15455" />
  <path
     d="M-160.86507510551388,-18.80489417177556L-160.86507510551388,41.30977793040119L-137.7399152710364,-40.81973346716895z"
     style="fill:rgb(238,238,238); fill-opacity: 0.4"
     id="path15457" />
  <path
     d="M-100.12958929832551,0.49235796845610846L-100.12958929832551,2.836056120983803L-101.03117276348775,3.6943513820327167zM-150.84439328595306,-19.4510004603312L-150.84439328595306,-12.419906002748112L-102.34257374600116,2.1087070290801857z"
     style="fill:rgb(255,187,187); fill-opacity: 0.4"
     id="path15459" />
  <path
     d="M-98.95431085266758,0.6569625390682284L-99.85589431782981,1.5152578001171415"
     style="fill:none;stroke:rgb(0,0,0);stroke-width:1;stroke-linecap:round"
     id="path15461" />
  <path
     d="M-101.30486774398344,2.6714515503716836L-102.20645120914567,3.5297468114205968L-102.20645120914567,1.1860486588929005zM-99.85589431782982,3.8589559526448376L-98.95431085266758,3.0006606915959244L-98.95431085266758,0.6569625390682295zM-99.85589431782982,3.8589559526448376L-102.20645120914567,3.5297468114205968L-98.95431085266758,3.0006606915959244z"
     style="fill:rgb(153,221,255); fill-opacity: 0.4"
     id="path15463" />
  <path
     d="M-102.20645120914565,1.1860486588929007L-102.20645120914565,3.5297468114205968M-102.20645120914565,3.5297468114205968L-99.85589431782981,3.8589559526448376"
     style="fill:none;stroke:rgb(0,0,0);stroke-width:1;stroke-linecap:round"
     id="path15465" />
  <path
     d="M19.37468126887939,26.649052374728125L-45.79659418865363,17.521436827481196L-45.79659418865363,10.49034236989811zM-99.85589431782982,1.5152578001171413L-98.95431085266758,0.6569625390682295L-101.30486774398344,0.3277533978439886z"
     style="fill:rgb(153,221,255); fill-opacity: 0.4"
     id="path15467" />
  <path
     d="M-100.12958929832551,0.49235796845610846L-101.03117276348775,3.6943513820327167L-101.03117276348775,1.3506532295050202z"
     style="fill:rgb(255,187,187); fill-opacity: 0.4"
     id="path15469" />
  <path
     d="M-101.03117094918765,3.694351657409386L-101.03117094918765,1.3506535048816903M-101.03117094918765,3.694351657409386L-48.94885706896563,5.743534182754463"
     style="fill:none;stroke:rgb(0,0,0);stroke-width:1;stroke-linecap:round"
     id="path15471" />
  <path
     d="M-102.20645120914567,1.1860486588929005L-99.85589431782982,1.5152578001171413L-101.30486774398344,0.3277533978439886z"
     style="fill:rgb(153,221,255); fill-opacity: 0.4"
     id="path15473" />
  <path
     d="M-48.50134458414035,13.06522815304485L16.66993087339266,22.192843700291775"
     style="fill:none;stroke:rgb(0,0,0);stroke-width:1;stroke-linecap:round"
     id="path15475" />
  <path
     d="M-100.12958929832551,2.836056120983803L-100.12958929832551,0.49235796845610846L-48.948854521621215,5.743534679428136z"
     style="fill:rgb(255,187,187); fill-opacity: 0.4"
     id="path15477" />
  <path
     d="M-99.85589431782982,1.5152578001171413L-99.85589431782982,3.8589559526448376L-98.95431085266758,0.6569625390682295z"
     style="fill:rgb(153,221,255); fill-opacity: 0.4"
     id="path15479" />
  <path
     d="M-99.85589431782981,1.5152578001171415L-99.85589431782981,3.8589559526448376"
     style="fill:none;stroke:rgb(0,0,0);stroke-width:1;stroke-linecap:round"
     id="path15481" />
  <path
     d="M-102.20645120914567,3.5297468114205968L-99.85589431782982,3.8589559526448376L-99.85589431782982,1.5152578001171413zM-102.20645120914567,1.1860486588929005L-102.20645120914567,3.5297468114205968L-99.85589431782982,1.5152578001171413z"
     style="fill:rgb(153,221,255); fill-opacity: 0.4"
     id="path15483" />
  <path
     d="M-102.20645120914565,1.1860486588929007L-99.85589431782981,1.5152578001171415"
     style="fill:none;stroke:rgb(0,0,0);stroke-width:1;stroke-linecap:round"
     id="path15485" />
  <path
     d="M-101.03117276348775,3.6943513820327167L-100.12958929832551,2.836056120983803L-48.948854521621215,5.743534679428136z"
     style="fill:rgb(255,187,187); fill-opacity: 0.4"
     id="path15487" />
  <path
     d="M-48.50134458414036,20.096322610627936L-45.79659418865363,17.521436827481196L19.37468126887939,26.649052374728125z"
     style="fill:rgb(153,221,255); fill-opacity: 0.4"
     id="path15489" />
  <path
     d="M-101.03117094918765,1.3506535048816903L-48.94885706896563,5.743534182754463"
     style="fill:none;stroke:rgb(0,0,0);stroke-width:1;stroke-linecap:round"
     id="path15491" />
  <path
     d="M-100.12958929832551,0.49235796845610846L-101.03117276348775,1.3506532295050202L-48.948854521621215,5.743534679428136zM-101.03117276348775,1.3506532295050202L-101.03117276348775,3.6943513820327167L-48.948854521621215,5.743534679428136z"
     style="fill:rgb(255,187,187); fill-opacity: 0.4"
     id="path15493" />
  <path
     d="M-160.86507510551388,-18.80489417177556L-160.86507510551388,41.30977793040119"
     style="fill:none;stroke:rgb(0,0,0);stroke-width:1;stroke-linecap:round"
     id="path15495" />
  <path
     d="M-226.0363505630469,32.18216238315427L-160.86507510551388,41.30977793040119L-160.86507510551388,-18.80489417177556zM-226.0363505630469,-27.93250971902249L-226.0363505630469,32.18216238315427L-160.86507510551388,-18.80489417177556z"
     style="fill:rgb(238,238,238); fill-opacity: 0.4"
     id="path15497" />
  <path
     d="M-226.03635056304685,-27.93250971902249L-160.86507510551388,-18.80489417177556"
     style="fill:none;stroke:rgb(0,0,0);stroke-width:1;stroke-linecap:round"
     id="path15499" />
  <path
     d="M-97.99142881267095,-52.83928596188112L-97.99142881267095,60.87765577103832L-100.3419857039868,-53.16849510310536z"
     style="fill:rgb(238,238,238); fill-opacity: 0.4"
     id="path15501" />
  <path
     d="M21.4536356600504,-18.523752296033567L21.453635660050402,41.590919806143184M21.453635660050402,41.590919806143184L-1.671524174427069,63.605759101536584"
     style="fill:none;stroke:rgb(0,0,0);stroke-width:1;stroke-linecap:round"
     id="path15503" />
  <path
     d="M-106.59128609032557,66.4976960490018L-104.24072919900972,66.82690519022604L-104.24072919900972,-46.89003654269339z"
     style="fill:rgb(238,238,238); fill-opacity: 0.4"
     id="path15505" />
  <path
     d="M21.4536356600504,-18.523752296033567L-43.717639797482605,-27.651367843280497M-43.717639797482605,-27.651367843280497L-66.84279963196008,-5.636528547887102"
     style="fill:none;stroke:rgb(0,0,0);stroke-width:1;stroke-linecap:round"
     id="path15507" />
  <path
     d="M-66.84279963196008,54.47814355428965L-43.71763979748261,32.463304258896265L21.453635660050406,41.59091980614319z"
     style="fill:rgb(238,238,238); fill-opacity: 0.4"
     id="path15509" />
  <path
     d="M-48.50134458414036,13.06522815304485L16.669930873392655,22.192843700291778L-45.79659418865363,10.49034236989811z"
     style="fill:rgb(153,221,255); fill-opacity: 0.4"
     id="path15511" />
  <path
     d="M-100.3419857039868,-53.16849510310536L-100.34198570398678,60.54844662981408L-106.59128609032558,-47.21924568391763zM-311.70366774127217,-59.27588049912656L-311.7036677412721,67.556764229322L-285.8801604149297,-55.65914835292266z"
     style="fill:rgb(238,238,238); fill-opacity: 0.4"
     id="path15513" />
  <path
     d="M-48.50134458414036,13.06522815304485L-48.50134458414036,20.096322610627936L16.669930873392655,22.192843700291778zM19.37468126887939,19.617957917145038L19.37468126887939,26.649052374728125L-45.79659418865363,10.49034236989811z"
     style="fill:rgb(153,221,255); fill-opacity: 0.4"
     id="path15515" />
  <path
     d="M19.374679025074467,19.61795718853762L74.05787017613363,33.0915771551788M19.374679025074467,26.649051646120707L74.05787017613363,33.0915771551788M16.669928199679244,29.223937838534518L74.05787017613363,33.0915771551788M16.669928199679244,22.19284338095143L74.05787017613363,33.0915771551788"
     style="fill:none;stroke:rgb(0,0,0);stroke-width:1;stroke-linecap:round"
     id="path15517" />
  <path
     d="M21.453635660050406,-18.523752296033564L21.453635660050406,41.59091980614319L-43.71763979748261,-27.651367843280497z"
     style="fill:rgb(238,238,238); fill-opacity: 0.4"
     id="path15519" />
  <path
     d="M16.669930873392655,29.223938157874866L-48.50134458414036,20.096322610627936L19.37468126887939,26.649052374728125zM16.669930873392655,22.192843700291778L19.37468126887939,19.617957917145038L-45.79659418865363,10.49034236989811z"
     style="fill:rgb(153,221,255); fill-opacity: 0.4"
     id="path15521" />
  <path
     d="M-104.24072919900972,-46.89003654269339L-104.24072919900972,66.82690519022604L-97.99142881267095,-52.83928596188112z"
     style="fill:rgb(238,238,238); fill-opacity: 0.4"
     id="path15523" />
  <path
     d="M19.374681179339415,26.64905236218753L19.374681179339415,19.617957904604445L74.05787283361316,33.0915783505877z"
     style="fill:rgb(255,187,187); fill-opacity: 0.4"
     id="path15525" />
  <path
     d="M-43.71763979748261,-27.651367843280497L-43.71763979748261,32.463304258896265L-66.84279963196008,-5.636528547887104z"
     style="fill:rgb(238,238,238); fill-opacity: 0.4"
     id="path15527" />
  <path
     d="M-48.50134458414036,20.096322610627936L16.669930873392655,29.223938157874866L16.669930873392655,22.192843700291778z"
     style="fill:rgb(153,221,255); fill-opacity: 0.4"
     id="path15529" />
  <path
     d="M19.374679025074467,19.61795718853762L19.374679025074467,26.649051646120707M19.374679025074467,26.649051646120707L16.669928199679244,29.223937838534518M19.374681268879385,19.617957917145038L19.374681268879385,26.649052374728125M19.374681268879385,26.649052374728125L16.66993087339266,29.223938157874866"
     style="fill:none;stroke:rgb(0,0,0);stroke-width:1;stroke-linecap:round"
     id="path15531" />
  <path
     d="M107.12095283827567,-53.89835414220129L107.12095283827567,72.93429058624724L81.29744551193319,-57.515086288405186z"
     style="fill:rgb(238,238,238); fill-opacity: 0.4"
     id="path15533" />
  <path
     d="M16.66993078385268,29.22393814533427L19.374681179339415,26.64905236218753L74.05787283361316,33.0915783505877z"
     style="fill:rgb(255,187,187); fill-opacity: 0.4"
     id="path15535" />
  <path
     d="M-97.99142881267092,-52.83928596188112L-100.34198570398678,-53.16849510310536M-100.34198570398678,-53.16849510310536L-106.59128609032557,-47.21924568391763"
     style="fill:none;stroke:rgb(0,0,0);stroke-width:1;stroke-linecap:round"
     id="path15537" />
  <path
     d="M19.374681179339415,19.617957904604445L16.66993078385268,22.192843687751182L74.05787283361316,33.0915783505877z"
     style="fill:rgb(255,187,187); fill-opacity: 0.4"
     id="path15539" />
  <path
     d="M19.374679025074467,19.61795718853762L16.669928199679244,22.19284338095143M19.374681268879385,19.617957917145038L16.66993087339266,22.192843700291775"
     style="fill:none;stroke:rgb(0,0,0);stroke-width:1;stroke-linecap:round"
     id="path15541" />
  <path
     d="M-106.59128609032558,-47.21924568391763L-106.59128609032557,66.4976960490018L-104.24072919900972,-46.89003654269339z"
     style="fill:rgb(238,238,238); fill-opacity: 0.4"
     id="path15543" />
  <path
     d="M19.374681179339415,19.617957904604445L19.374681179339415,26.64905236218753L16.66993078385268,29.22393814533427z"
     style="fill:rgb(255,187,187); fill-opacity: 0.4"
     id="path15545" />
  <path
     d="M16.669930873392655,29.223938157874866L19.37468126887939,26.649052374728125L19.37468126887939,19.617957917145038z"
     style="fill:rgb(153,221,255); fill-opacity: 0.4"
     id="path15547" />
  <path
     d="M-97.99142881267092,-52.83928596188112L-104.24072919900972,-46.89003654269339"
     style="fill:none;stroke:rgb(0,0,0);stroke-width:1;stroke-linecap:round"
     id="path15549" />
  <path
     d="M32.506940981032415,115.76545865250102L81.29744551193319,69.31755844004336L107.12095283827567,72.93429058624724z"
     style="fill:rgb(238,238,238); fill-opacity: 0.4"
     id="path15551" />
  <path
     d="M16.66993078385268,22.192843687751182L16.66993078385268,29.22393814533427L74.05787283361316,33.0915783505877z"
     style="fill:rgb(255,187,187); fill-opacity: 0.4"
     id="path15553" />
  <path
     d="M-311.70366774127217,-59.27588049912655L-285.8801604149297,-55.65914835292266"
     style="fill:none;stroke:rgb(0,0,0);stroke-width:1;stroke-linecap:round"
     id="path15555" />
  <path
     d="M19.374681179339415,19.617957904604445L16.66993078385268,29.22393814533427L16.66993078385268,22.192843687751182z"
     style="fill:rgb(255,187,187); fill-opacity: 0.4"
     id="path15557" />
  <path
     d="M16.669930873392655,22.192843700291778L16.669930873392655,29.223938157874866L19.37468126887939,19.617957917145038z"
     style="fill:rgb(153,221,255); fill-opacity: 0.4"
     id="path15559" />
  <path
     d="M16.669928199679244,29.223937838534518L16.669928199679244,22.19284338095143M16.66993087339266,22.192843700291775L16.66993087339266,29.223938157874866"
     style="fill:none;stroke:rgb(0,0,0);stroke-width:1;stroke-linecap:round"
     id="path15561" />
  <path
     d="M-104.24072919900972,-46.89003654269339L-97.99142881267095,-52.83928596188112L-100.3419857039868,-53.16849510310536zM-43.71763979748261,32.463304258896265L-66.84279963196008,54.47814355428965L-66.84279963196008,-5.636528547887104z"
     style="fill:rgb(238,238,238); fill-opacity: 0.4"
     id="path15563" />
  <path
     d="M107.12095283827567,-53.89835414220129L81.29744551193318,-57.515086288405186M81.29744551193318,-57.515086288405186L32.506940981032415,-11.06718607594752M21.4536356600504,-18.523752296033567L-1.671524174427074,3.4910869993598226"
     style="fill:none;stroke:rgb(0,0,0);stroke-width:1;stroke-linecap:round"
     id="path15565" />
  <path
     d="M-106.59128609032558,-47.21924568391763L-104.24072919900972,-46.89003654269339L-100.3419857039868,-53.16849510310536zM-1.671524174427059,63.605759101536584L21.453635660050406,41.59091980614319L21.453635660050406,-18.523752296033564z"
     style="fill:rgb(238,238,238); fill-opacity: 0.4"
     id="path15567" />
  <path
     d="M-106.59128609032557,-47.21924568391763L-104.24072919900972,-46.89003654269339"
     style="fill:none;stroke:rgb(0,0,0);stroke-width:1;stroke-linecap:round"
     id="path15569" />
  <path
     d="M-1.671524174427059,63.605759101536584L-66.84279963196008,54.47814355428965L21.453635660050406,41.59091980614319z"
     style="fill:rgb(238,238,238); fill-opacity: 0.4"
     id="path15571" />
  <path
     d="M107.12095283827567,-53.89835414220129L58.33044830737489,-7.450453929743629M-66.84279963196008,-5.636528547887102L-66.84279963196008,54.47814355428965M-66.84279963196008,54.47814355428965L-1.671524174427069,63.605759101536584"
     style="fill:none;stroke:rgb(0,0,0);stroke-width:1;stroke-linecap:round"
     id="path15573" />
  <path
     d="M-1.671524174427059,3.4910869993598235L21.453635660050406,-18.523752296033564L-43.71763979748261,-27.651367843280497zM58.33044830737489,119.38219079870491L107.12095283827567,72.93429058624724L107.12095283827567,-53.89835414220129zM81.29744551193319,-57.515086288405186L81.29744551193319,69.31755844004336L32.506940981032415,-11.067186075947522zM-66.84279963196008,-5.636528547887104L-1.671524174427059,3.4910869993598235L-43.71763979748261,-27.651367843280497zM-1.671524174427059,3.4910869993598235L-1.671524174427059,63.605759101536584L21.453635660050406,-18.523752296033564z"
     style="fill:rgb(238,238,238); fill-opacity: 0.4"
     id="path15575" />
  <path
     d="M-1.671524174427074,3.4910869993598226L-1.671524174427069,63.605759101536584"
     style="fill:none;stroke:rgb(0,0,0);stroke-width:1;stroke-linecap:round"
     id="path15577" />
  <path
     d="M-66.84279963196008,54.47814355428965L-1.671524174427059,63.605759101536584L-1.671524174427059,3.4910869993598235zM-66.84279963196008,-5.636528547887104L-66.84279963196008,54.47814355428965L-1.671524174427059,3.4910869993598235z"
     style="fill:rgb(238,238,238); fill-opacity: 0.4"
     id="path15579" />
  <path
     d="M-66.84279963196008,-5.636528547887102L-1.671524174427074,3.4910869993598226"
     style="fill:none;stroke:rgb(0,0,0);stroke-width:1;stroke-linecap:round"
     id="path15581" />
  <path
     d="M58.33044830737489,119.38219079870491L32.506940981032415,115.76545865250102L107.12095283827567,72.93429058624724zM58.33044830737489,-7.45045392974363L107.12095283827567,-53.89835414220129L81.29744551193319,-57.515086288405186zM81.29744551193319,69.31755844004336L32.506940981032415,115.76545865250102L32.506940981032415,-11.067186075947522z"
     style="fill:rgb(238,238,238); fill-opacity: 0.4"
     id="path15583" />
  <path
     d="M32.506940981032415,-11.06718607594752L32.50694098103242,115.76545865250104M32.50694098103242,115.76545865250104L58.3304483073749,119.38219079870491"
     style="fill:none;stroke:rgb(0,0,0);stroke-width:1;stroke-linecap:round"
     id="path15585" />
  <path
     d="M58.33044830737489,-7.45045392974363L58.33044830737489,119.38219079870491L107.12095283827567,-53.89835414220129z"
     style="fill:rgb(238,238,238); fill-opacity: 0.4"
     id="path15587" />
  <path
     d="M58.33044830737489,-7.450453929743629L58.3304483073749,119.38219079870491"
     style="fill:none;stroke:rgb(0,0,0);stroke-width:1;stroke-linecap:round"
     id="path15589" />
  <path
     d="M32.506940981032415,-11.067186075947522L58.33044830737489,-7.45045392974363L81.29744551193319,-57.515086288405186zM32.506940981032415,115.76545865250102L58.33044830737489,119.38219079870491L58.33044830737489,-7.45045392974363zM32.506940981032415,-11.067186075947522L32.506940981032415,115.76545865250102L58.33044830737489,-7.45045392974363z"
     style="fill:rgb(238,238,238); fill-opacity: 0.4"
     id="path15591" />
  <path
     d="M32.506940981032415,-11.06718607594752L58.33044830737489,-7.450453929743629"
     style="fill:none;stroke:rgb(0,0,0);stroke-width:1;stroke-linecap:round"
     id="path15593" />
</svg>
