<svg viewBox="-960 -451 1920 902" width="1920" height="902" style="background-color: rgb(255, 255, 255);" xmlns="http://www.w3.org/2000/svg"><path d="M-130.5964272064517,52.29129265521319L-134.9597909461532,51.47002510903383M-134.9597909461532,-146.02625275964988L-134.9597909461532,51.47002510903383M-134.9597909461532,51.47002510903383L-238.87608532124202,111.11526826244815M-130.5964272064517,-145.20498521347056L-130.5964272064517,52.29129265521319M-130.5964272064517,52.29129265521319L-234.51272158154052,111.9365358086275" style="fill:none;stroke:rgb(0,0,0);stroke-width:1;stroke-linecap:round"></path><path d="M-130.59642720645172,52.29129265521319L-134.95979094615322,51.47002510903383L-134.95979094615322,-146.02625275964988zM-130.59642720645172,-145.20498521347054L-130.59642720645172,52.29129265521319L-134.95979094615322,-146.02625275964988zM-238.87608532124202,111.11526826244814L-134.95979094615322,51.47002510903383L-130.59642720645172,52.29129265521319z" style="fill:rgb(238,238,238); fill-opacity: 0.4"></path><path d="M-23.92598952211818,62.51102064320871L-54.1705223445411,56.81842778637035M-54.1705223445411,-107.76181584764292L-54.1705223445411,56.81842778637035M-54.1705223445411,56.81842778637035L-140.76744067819973,106.52280072815249M-130.5964272064517,-145.20498521347056L-134.9597909461532,-146.02625275964988M-134.9597909461532,-146.02625275964988L-238.87608532124202,-86.38100960623558M-130.5964272064517,-145.20498521347056L-234.51272158154052,-85.55974206005622" style="fill:none;stroke:rgb(0,0,0);stroke-width:1;stroke-linecap:round"></path><path d="M-234.51272158154052,111.9365358086275L-130.59642720645172,52.29129265521319L-130.59642720645172,-145.20498521347054z" style="fill:rgb(238,238,238); fill-opacity: 0.4"></path><path d="M-23.92598952211818,-102.06922299080456L-23.92598952211818,62.51102064320871M-23.92598952211818,62.51102064320871L-110.52290785577681,112.21539358499085" style="fill:none;stroke:rgb(0,0,0);stroke-width:1;stroke-linecap:round"></path><path d="M-23.925989522118186,62.51102064320871L-54.1705223445411,56.81842778637035L-54.1705223445411,-107.76181584764292zM-134.95979094615322,-146.02625275964988L-134.95979094615322,51.47002510903383L-238.87608532124202,-86.38100960623558zM-234.51272158154052,111.9365358086275L-238.87608532124202,111.11526826244814L-130.59642720645172,52.29129265521319zM-23.925989522118186,-102.06922299080456L-23.925989522118186,62.51102064320871L-54.1705223445411,-107.76181584764292zM-140.76744067819973,106.52280072815249L-54.1705223445411,56.81842778637035L-23.925989522118186,62.51102064320871z" style="fill:rgb(238,238,238); fill-opacity: 0.4"></path><path d="M-23.92598952211818,-102.06922299080456L-54.1705223445411,-107.76181584764292M-54.1705223445411,-107.76181584764292L-140.76744067819973,-58.05744290586078" style="fill:none;stroke:rgb(0,0,0);stroke-width:1;stroke-linecap:round"></path><path d="M-234.51272158154052,-85.55974206005622L-130.59642720645172,-145.20498521347054L-134.95979094615322,-146.02625275964988z" style="fill:rgb(238,238,238); fill-opacity: 0.4"></path><path d="M-30.718314537835884,-72.0634789747863L-60.9628473602588,-77.75607183162467M-60.9628473602588,-92.00241747960347L-60.9628473602588,-77.75607183162467M-60.9628473602588,-77.75607183162467L-68.45882381156677,-73.45357682062365M-30.718314537835884,-86.3098246227651L-60.9628473602588,-92.00241747960347M-60.9628473602588,-92.00241747960347L-68.45882381156677,-87.69992246860247" style="fill:none;stroke:rgb(0,0,0);stroke-width:1;stroke-linecap:round"></path><path d="M-30.718314537835884,-72.0634789747863L-60.9628473602588,-77.75607183162467L-60.9628473602588,-92.00241747960347zM-60.9628473602588,-92.00241747960347L-60.9628473602588,-77.75607183162467L-68.45882381156676,-87.69992246860245z" style="fill:rgb(153,221,255); fill-opacity: 0.4"></path><path d="M-134.95979094615322,51.47002510903383L-238.87608532124202,111.11526826244814L-238.87608532124202,-86.38100960623558z" style="fill:rgb(238,238,238); fill-opacity: 0.4"></path><path d="M-68.45882381156677,-73.45357682062365L-60.9628473602588,-77.75607183162467L-30.718314537835884,-72.0634789747863zM-60.9628473602588,-77.75607183162467L-68.45882381156677,-73.45357682062365L-68.45882381156676,-87.69992246860245z" style="fill:rgb(153,221,255); fill-opacity: 0.4"></path><path d="M-68.45882381156677,-87.69992246860247L-68.45882381156677,-73.45357682062365M-68.45882381156677,-73.45357682062365L-38.21429098914386,-67.76098396378529" style="fill:none;stroke:rgb(0,0,0);stroke-width:1;stroke-linecap:round"></path><path d="M-30.718314537835884,-86.30982462276509L-30.718314537835884,-72.0634789747863L-60.9628473602588,-92.00241747960347z" style="fill:rgb(153,221,255); fill-opacity: 0.4"></path><path d="M-23.92598952211818,-102.06922299080456L-110.52290785577681,-52.36485004902242M-30.718314537835884,-86.3098246227651L-30.718314537835884,-72.0634789747863M-30.718314537835884,-72.0634789747863L-38.21429098914386,-67.76098396378529M-30.71831464055048,-86.30982299804359L-30.71831464055048,-72.06347735006477M-30.71831464055048,-72.06347735006477L-38.21429109185847,-67.76098233906376M-30.71831464055048,-72.06347735006477L46.24934171960787,-44.18835598052745M-68.45882381156677,-87.69992246860247L-38.21429098914386,-82.00732961176409" style="fill:none;stroke:rgb(0,0,0);stroke-width:1;stroke-linecap:round"></path><path d="M-68.45882381156676,-87.69992246860245L-38.21429098914386,-82.00732961176409L-60.9628473602588,-92.00241747960347zM-38.21429098914386,-67.76098396378529L-68.45882381156677,-73.45357682062365L-30.718314537835884,-72.0634789747863zM-38.21429098914386,-82.00732961176409L-30.718314537835884,-86.30982462276509L-60.9628473602588,-92.00241747960347zM-68.45882381156676,-87.69992246860245L-68.45882381156677,-73.45357682062365L-38.21429098914386,-82.00732961176409z" style="fill:rgb(153,221,255); fill-opacity: 0.4"></path><path d="M-30.718314537835884,-86.3098246227651L-38.21429098914386,-82.00732961176409M-30.71831464055048,-86.30982299804359L-38.21429109185847,-82.00732798704257M-30.71831464055048,-86.30982299804359L46.24934171960787,-44.18835598052745" style="fill:none;stroke:rgb(0,0,0);stroke-width:1;stroke-linecap:round"></path><path d="M-30.71831457938938,-86.30982463058626L-30.71831457938938,-72.06347898260746L-38.21429103069735,-67.76098397160645z" style="fill:rgb(255,187,187); fill-opacity: 0.4"></path><path d="M-38.21429098914386,-67.76098396378529L-30.718314537835884,-72.0634789747863L-30.718314537835884,-86.30982462276509z" style="fill:rgb(153,221,255); fill-opacity: 0.4"></path><path d="M-110.52290785577682,112.21539358499085L-23.925989522118186,62.51102064320871L-23.925989522118186,-102.06922299080456z" style="fill:rgb(238,238,238); fill-opacity: 0.4"></path><path d="M102.61804312019542,76.4713294919405L54.68159201111299,67.4487831438801M54.68159201111299,-64.21540814029744L54.68159201111299,67.4487831438801M54.68159201111299,67.4487831438801L-14.595940749488534,107.21228040312478" style="fill:none;stroke:rgb(0,0,0);stroke-width:1;stroke-linecap:round"></path><path d="M-68.45882381156677,-73.45357682062365L-38.21429098914386,-67.76098396378529L-38.21429098914386,-82.00732961176409z" style="fill:rgb(153,221,255); fill-opacity: 0.4"></path><path d="M-54.1705223445411,-107.76181584764292L-54.1705223445411,56.81842778637035L-140.76744067819973,-58.05744290586078z" style="fill:rgb(238,238,238); fill-opacity: 0.4"></path><path d="M-30.71831457938938,-86.30982463058626L-38.21429103069735,-67.76098397160645L-38.21429103069735,-82.00732961958525z" style="fill:rgb(255,187,187); fill-opacity: 0.4"></path><path d="M-38.21429098914386,-82.00732961176409L-38.21429098914386,-67.76098396378529L-30.718314537835884,-86.30982462276509z" style="fill:rgb(153,221,255); fill-opacity: 0.4"></path><path d="M-38.21429098914386,-82.00732961176409L-38.21429098914386,-67.76098396378529M-38.21429109185847,-67.76098233906376L-38.21429109185847,-82.00732798704257M-38.21429109185847,-67.76098233906376L46.24934171960787,-44.18835598052745M-38.21429109185847,-82.00732798704257L46.24934171960787,-44.18835598052745" style="fill:none;stroke:rgb(0,0,0);stroke-width:1;stroke-linecap:round"></path><path d="M-234.51272158154052,-85.55974206005622L-234.51272158154052,111.9365358086275L-130.59642720645172,-145.20498521347054z" style="fill:rgb(238,238,238); fill-opacity: 0.4"></path><path d="M-30.71831457938938,-72.06347898260746L-30.71831457938938,-86.30982463058626L46.24934280389503,-44.18835545943555zM-38.21429103069735,-67.76098397160645L-30.71831457938938,-72.06347898260746L46.24934280389503,-44.18835545943555z" style="fill:rgb(255,187,187); fill-opacity: 0.4"></path><path d="M-238.87608532124202,-86.38100960623558L-238.87608532124202,111.11526826244815M-238.87608532124202,111.11526826244815L-234.51272158154052,111.9365358086275" style="fill:none;stroke:rgb(0,0,0);stroke-width:1;stroke-linecap:round"></path><path d="M-30.71831457938938,-86.30982463058626L-38.21429103069735,-82.00732961958525L46.24934280389503,-44.18835545943555z" style="fill:rgb(255,187,187); fill-opacity: 0.4"></path><path d="M-234.51272158154052,-85.55974206005622L-234.51272158154052,111.9365358086275" style="fill:none;stroke:rgb(0,0,0);stroke-width:1;stroke-linecap:round"></path><path d="M-110.52290785577682,112.21539358499085L-140.76744067819973,106.52280072815249L-23.925989522118186,62.51102064320871z" style="fill:rgb(238,238,238); fill-opacity: 0.4"></path><path d="M-38.21429103069735,-82.00732961958525L-38.21429103069735,-67.76098397160645L46.24934280389503,-44.18835545943555z" style="fill:rgb(255,187,187); fill-opacity: 0.4"></path><path d="M102.61804312019542,76.47132949194048L54.68159201111297,67.4487831438801L54.68159201111297,-64.21540814029746z" style="fill:rgb(238,238,238); fill-opacity: 0.4"></path><path d="M102.61804312019542,-55.192861792237075L102.61804312019542,76.4713294919405M102.61804312019542,76.4713294919405L33.3405103595939,116.23482675118514" style="fill:none;stroke:rgb(0,0,0);stroke-width:1;stroke-linecap:round"></path><path d="M-54.1705223445411,56.81842778637035L-140.76744067819973,106.52280072815249L-140.76744067819973,-58.05744290586078z" style="fill:rgb(238,238,238); fill-opacity: 0.4"></path><path d="M-214.26026958386987,-29.262655708907257L-218.62363332357137,-30.083923255086614M-218.62363332357137,-44.33026890306542L-218.62363332357137,-30.083923255086614M-218.62363332357137,-30.083923255086614L-226.11960977487934,-25.781428244085603" style="fill:none;stroke:rgb(0,0,0);stroke-width:1;stroke-linecap:round"></path><path d="M-238.87608532124202,-86.38100960623558L-234.51272158154052,-85.55974206005622L-134.95979094615322,-146.02625275964988zM-110.52290785577682,-52.36485004902242L-23.925989522118186,-102.06922299080456L-54.1705223445411,-107.76181584764292z" style="fill:rgb(238,238,238); fill-opacity: 0.4"></path><path d="M-216.4419479388658,-43.91963384804586L-216.4419479388658,-29.673290464462717M-216.4419479388658,-29.673290464462717L-223.93792439017378,-25.370795453461703M-216.4419479388658,-29.673290464462717L-127.01371744570869,-15.28647075014059M-214.26026958386987,-43.50900135688606L-214.26026958386987,-29.262655708907257M-214.26026958386987,-29.262655708907257L-221.75624603517784,-24.960160697906247" style="fill:none;stroke:rgb(0,0,0);stroke-width:1;stroke-linecap:round"></path><path d="M-214.26026958386987,-29.26265570890726L-218.62363332357137,-30.08392325508662L-218.62363332357137,-44.33026890306542zM-214.26026958386987,-43.50900135688606L-214.26026958386987,-29.26265570890726L-218.62363332357137,-44.33026890306542zM-226.11960977487934,-25.781428244085603L-218.62363332357137,-30.08392325508662L-214.26026958386987,-29.26265570890726z" style="fill:rgb(153,221,255); fill-opacity: 0.4"></path><path d="M-214.26026958386987,-43.50900135688606L-218.62363332357137,-44.33026890306542M-218.62363332357137,-44.33026890306542L-226.11960977487934,-40.0277738920644M-216.4419479388658,-43.91963384804586L-223.93792439017378,-39.61713883704485M-216.4419479388658,-43.91963384804586L-127.01371744570869,-15.28647075014059" style="fill:none;stroke:rgb(0,0,0);stroke-width:1;stroke-linecap:round"></path><path d="M-216.44195145372063,-43.91963512997573L-216.44195145372063,-29.67328948199694L-223.9379279050286,-25.370794470995925z" style="fill:rgb(255,187,187); fill-opacity: 0.4"></path><path d="M-214.26026958386987,-43.50900135688606L-221.75624603517784,-39.206506345885046" style="fill:none;stroke:rgb(0,0,0);stroke-width:1;stroke-linecap:round"></path><path d="M-218.62363332357137,-44.33026890306542L-218.62363332357137,-30.08392325508662L-226.11960977487934,-40.0277738920644zM-221.75624603517784,-24.960160697906247L-214.26026958386987,-29.26265570890726L-214.26026958386987,-43.50900135688606zM-221.75624603517784,-24.960160697906247L-226.11960977487934,-25.781428244085603L-214.26026958386987,-29.26265570890726zM-218.62363332357137,-30.08392325508662L-226.11960977487934,-25.781428244085603L-226.11960977487934,-40.0277738920644zM-221.75624603517784,-39.20650634588504L-214.26026958386987,-43.50900135688606L-218.62363332357137,-44.33026890306542z" style="fill:rgb(153,221,255); fill-opacity: 0.4"></path><path d="M-226.11960977487934,-40.0277738920644L-226.11960977487934,-25.781428244085603M-226.11960977487934,-25.781428244085603L-221.75624603517784,-24.960160697906247" style="fill:none;stroke:rgb(0,0,0);stroke-width:1;stroke-linecap:round"></path><path d="M-216.44195145372063,-43.91963512997573L-223.9379279050286,-25.370794470995925L-223.9379279050286,-39.617140118974724z" style="fill:rgb(255,187,187); fill-opacity: 0.4"></path><path d="M-238.87608532124202,111.11526826244814L-234.51272158154052,111.9365358086275L-234.51272158154052,-85.55974206005622z" style="fill:rgb(238,238,238); fill-opacity: 0.4"></path><path d="M-223.93792439017378,-25.370795453461703L-223.93792439017378,-39.61713883704485M-223.93792439017378,-25.370795453461703L-127.01371744570869,-15.28647075014059" style="fill:none;stroke:rgb(0,0,0);stroke-width:1;stroke-linecap:round"></path><path d="M-221.75624603517784,-39.20650634588504L-221.75624603517784,-24.960160697906247L-214.26026958386987,-43.50900135688606zM-226.11960977487934,-40.0277738920644L-221.75624603517784,-39.20650634588504L-218.62363332357137,-44.33026890306542z" style="fill:rgb(153,221,255); fill-opacity: 0.4"></path><path d="M102.61804312019542,-55.192861792237075L54.68159201111299,-64.21540814029744M54.68159201111299,-64.21540814029744L-14.595940749488534,-24.4519108810528M-221.75624603517784,-39.206506345885046L-221.75624603517784,-24.960160697906247" style="fill:none;stroke:rgb(0,0,0);stroke-width:1;stroke-linecap:round"></path><path d="M-226.11960977487934,-25.781428244085603L-221.75624603517784,-24.960160697906247L-221.75624603517784,-39.20650634588504z" style="fill:rgb(153,221,255); fill-opacity: 0.4"></path><path d="M-14.595940749488548,107.21228040312477L54.68159201111297,67.4487831438801L102.61804312019542,76.47132949194048z" style="fill:rgb(238,238,238); fill-opacity: 0.4"></path><path d="M-226.11960977487934,-40.0277738920644L-226.11960977487934,-25.781428244085603L-221.75624603517784,-39.20650634588504z" style="fill:rgb(153,221,255); fill-opacity: 0.4"></path><path d="M102.61804312019542,-55.192861792237075L102.61804312019542,76.47132949194048L54.68159201111297,-64.21540814029746z" style="fill:rgb(238,238,238); fill-opacity: 0.4"></path><path d="M-226.11960977487934,-40.0277738920644L-221.75624603517784,-39.206506345885046" style="fill:none;stroke:rgb(0,0,0);stroke-width:1;stroke-linecap:round"></path><path d="M-216.44195145372063,-29.67328948199694L-216.44195145372063,-43.91963512997573L-127.01371764942338,-15.286471156069592z" style="fill:rgb(255,187,187); fill-opacity: 0.4"></path><path d="M-223.93792439017378,-39.61713883704485L-127.01371744570869,-15.28647075014059" style="fill:none;stroke:rgb(0,0,0);stroke-width:1;stroke-linecap:round"></path><path d="M-223.9379279050286,-25.370794470995925L-216.44195145372063,-29.67328948199694L-127.01371764942338,-15.286471156069592zM-216.44195145372063,-43.91963512997573L-223.9379279050286,-39.617140118974724L-127.01371764942338,-15.286471156069592zM-223.9379279050286,-39.617140118974724L-223.9379279050286,-25.370794470995925L-127.01371764942338,-15.286471156069592z" style="fill:rgb(255,187,187); fill-opacity: 0.4"></path><path d="M-140.76744067819973,-58.05744290586078L-140.76744067819973,106.52280072815249M-140.76744067819973,106.52280072815249L-110.52290785577681,112.21539358499085" style="fill:none;stroke:rgb(0,0,0);stroke-width:1;stroke-linecap:round"></path><path d="M-238.87608532124202,-86.38100960623558L-238.87608532124202,111.11526826244814L-234.51272158154052,-85.55974206005622zM-110.52290785577682,-52.36485004902242L-110.52290785577682,112.21539358499085L-23.925989522118186,-102.06922299080456zM54.68159201111297,-64.21540814029746L54.68159201111297,67.4487831438801L-14.595940749488548,-24.451910881052797z" style="fill:rgb(238,238,238); fill-opacity: 0.4"></path><path d="M102.61804312019542,-55.192861792237075L33.3405103595939,-15.42936453299242" style="fill:none;stroke:rgb(0,0,0);stroke-width:1;stroke-linecap:round"></path><path d="M-140.76744067819973,-58.05744290586078L-110.52290785577682,-52.36485004902242L-54.1705223445411,-107.76181584764292z" style="fill:rgb(238,238,238); fill-opacity: 0.4"></path><path d="M-110.52290785577681,-52.36485004902242L-110.52290785577681,112.21539358499085" style="fill:none;stroke:rgb(0,0,0);stroke-width:1;stroke-linecap:round"></path><path d="M33.34051035959387,116.23482675118514L102.61804312019542,76.47132949194048L102.61804312019542,-55.192861792237075z" style="fill:rgb(238,238,238); fill-opacity: 0.4"></path><path d="M-238.87608532124202,-86.38100960623558L-234.51272158154052,-85.55974206005622" style="fill:none;stroke:rgb(0,0,0);stroke-width:1;stroke-linecap:round"></path><path d="M-140.76744067819973,106.52280072815249L-110.52290785577682,112.21539358499085L-110.52290785577682,-52.36485004902242zM54.68159201111297,67.4487831438801L-14.595940749488548,107.21228040312477L-14.595940749488548,-24.451910881052797zM33.34051035959387,116.23482675118514L-14.595940749488548,107.21228040312477L102.61804312019542,76.47132949194048zM33.34051035959387,-15.429364532992421L102.61804312019542,-55.192861792237075L54.68159201111297,-64.21540814029746zM-140.76744067819973,-58.05744290586078L-140.76744067819973,106.52280072815249L-110.52290785577682,-52.36485004902242z" style="fill:rgb(238,238,238); fill-opacity: 0.4"></path><path d="M-14.595940749488534,-24.4519108810528L-14.595940749488534,107.21228040312478M-14.595940749488534,107.21228040312478L33.3405103595939,116.23482675118514M-140.76744067819973,-58.05744290586078L-110.52290785577681,-52.36485004902242" style="fill:none;stroke:rgb(0,0,0);stroke-width:1;stroke-linecap:round"></path><path d="M-14.595940749488548,-24.451910881052797L33.34051035959387,-15.429364532992421L54.68159201111297,-64.21540814029746zM33.34051035959387,-15.429364532992421L33.34051035959387,116.23482675118514L102.61804312019542,-55.192861792237075z" style="fill:rgb(238,238,238); fill-opacity: 0.4"></path><path d="M33.3405103595939,-15.42936453299242L33.3405103595939,116.23482675118514" style="fill:none;stroke:rgb(0,0,0);stroke-width:1;stroke-linecap:round"></path><path d="M-14.595940749488548,107.21228040312477L33.34051035959387,116.23482675118514L33.34051035959387,-15.429364532992421zM-14.595940749488548,-24.451910881052797L-14.595940749488548,107.21228040312477L33.34051035959387,-15.429364532992421z" style="fill:rgb(238,238,238); fill-opacity: 0.4"></path><path d="M-14.595940749488534,-24.4519108810528L33.3405103595939,-15.42936453299242" style="fill:none;stroke:rgb(0,0,0);stroke-width:1;stroke-linecap:round"></path></svg>